<svg width="16" height="20" viewBox="0 0 16 20" fill="none" xmlns="http://www.w3.org/2000/svg">
<path d="M14.2648 2.60776C12.057 0.399951 8.46172 0.399951 6.25625 2.60776L0.139061 8.72026C0.0992177 8.76011 0.0781238 8.81401 0.0781238 8.87026C0.0781238 8.92651 0.0992177 8.98042 0.139061 9.02026L1.0039 9.88511C1.04344 9.92447 1.09695 9.94656 1.15273 9.94656C1.20852 9.94656 1.26203 9.92447 1.30156 9.88511L7.41875 3.77261C8.17812 3.01323 9.18828 2.59604 10.2617 2.59604C11.3352 2.59604 12.3453 3.01323 13.1023 3.77261C13.8617 4.53198 14.2789 5.54214 14.2789 6.61323C14.2789 7.68667 13.8617 8.69448 13.1023 9.45386L6.86797 15.6859L5.85781 16.696C4.91328 17.6406 3.37812 17.6406 2.43359 16.696C1.97656 16.239 1.72578 15.632 1.72578 14.9851C1.72578 14.3382 1.97656 13.7312 2.43359 13.2742L8.61875 7.09136C8.77578 6.93667 8.98203 6.84995 9.20234 6.84995H9.20469C9.425 6.84995 9.6289 6.93667 9.78359 7.09136C9.94062 7.24839 10.025 7.45464 10.025 7.67495C10.025 7.89292 9.93828 8.09917 9.78359 8.25386L4.72812 13.3046C4.68828 13.3445 4.66719 13.3984 4.66719 13.4546C4.66719 13.5109 4.68828 13.5648 4.72812 13.6046L5.59297 14.4695C5.6325 14.5088 5.68601 14.5309 5.7418 14.5309C5.79758 14.5309 5.85109 14.5088 5.89062 14.4695L10.9437 9.41636C11.4102 8.94995 11.6656 8.3312 11.6656 7.67261C11.6656 7.01401 11.4078 6.39292 10.9437 5.92886C9.98047 4.96558 8.41484 4.96792 7.45156 5.92886L6.85156 6.5312L1.26875 12.1117C0.889837 12.4884 0.58948 12.9365 0.385097 13.4302C0.180715 13.9238 0.0763732 14.4532 0.0781238 14.9875C0.0781238 16.0726 0.502343 17.0921 1.26875 17.8585C2.06328 18.6507 3.10391 19.0468 4.14453 19.0468C5.18516 19.0468 6.22578 18.6507 7.01797 17.8585L14.2648 10.6164C15.3312 9.54761 15.9219 8.12495 15.9219 6.61323C15.9242 5.09917 15.3336 3.67651 14.2648 2.60776Z" fill="#2C80FF"/>
</svg>
